<svg xmlns="http://www.w3.org/2000/svg" width="36.002" height="36.003" viewBox="0 0 36.002 36.003">
  <path fill="current" stroke="current" id="Icon_awesome-tools" data-name="Icon awesome-tools" d="M35.234,27.823,27,19.589a5.221,5.221,0,0,0-6-.977l-7.5-7.5V6.75L4.5,0,0,4.5l6.75,9h4.366l7.5,7.5a5.232,5.232,0,0,0,.977,6l8.234,8.234a2.614,2.614,0,0,0,3.705,0l3.705-3.705a2.627,2.627,0,0,0,0-3.705Zm-11.911-12A7.4,7.4,0,0,1,28.589,18l1.364,1.364a9.953,9.953,0,0,0,3.08-2.074A10.112,10.112,0,0,0,35.7,7.678a.842.842,0,0,0-1.413-.387l-5.231,5.231-4.774-.795-.795-4.774,5.231-5.231a.849.849,0,0,0-.4-1.42,10.129,10.129,0,0,0-9.6,2.665,9.964,9.964,0,0,0-2.9,7.284l5.773,5.773a7.66,7.66,0,0,1,1.737-.2Zm-7.305,5.766L12.03,17.6,1.315,28.322a4.5,4.5,0,0,0,6.363,6.363l8.691-8.691a7.551,7.551,0,0,1-.352-4.409ZM4.5,33.188A1.688,1.688,0,1,1,6.188,31.5,1.692,1.692,0,0,1,4.5,33.188Z" transform="translate(0.003)"/>
</svg>